<svg width="223" height="79" viewBox="0 0 223 79" fill="none" xmlns="http://www.w3.org/2000/svg">
<path fill-rule="evenodd" clip-rule="evenodd" d="M32.2341 17.1212L24.545 36.7629H39.9193L32.2341 17.1212ZM19.6555 49.2774L15.7246 59.4456H0L25.2464 0H39.3076L64.4639 59.4456H48.829L44.8122 49.2774H19.6555ZM80.1969 78.914H65.3489L73.3839 59.9684L53.2932 17.295H68.3183L80.4579 43.2813L91.4661 17.295H106.313L80.1969 78.914ZM153.317 59.4461H139.167V56.6648C135.76 59.2718 132.093 60.751 127.55 60.751C116.805 60.751 109.468 53.3612 109.468 41.3681V17.295H123.618V39.1961C123.618 45.1922 126.764 48.0617 131.393 48.0617C134.012 48.0617 136.722 46.5826 139.167 43.8891V17.295H153.318V59.4461H153.317ZM205.999 38.3275C205.999 50.8425 196.387 60.3137 184.946 60.3137C180.318 60.3137 176.475 59.0971 173.33 57.0989V79H159.179V17.295H173.33V19.5534C176.475 17.5552 180.318 16.3377 184.946 16.3377C196.387 16.3377 205.999 25.7238 205.999 38.3275ZM192.109 38.3275C192.109 32.5025 187.916 27.8113 182.151 27.8113C179.006 27.8113 175.949 28.7676 173.33 31.8087V44.846C175.949 47.887 179.006 48.756 182.151 48.756C187.916 48.756 192.109 44.1494 192.109 38.3275Z" fill="white"/>
<path fill-rule="evenodd" clip-rule="evenodd" d="M207.104 68.3612C207.104 64.1036 210.686 60.8 215.054 60.8C219.418 60.8 223 64.1036 223 68.3608C223 72.7072 219.418 76.0117 215.054 76.0117C210.685 76.0117 207.104 72.7076 207.104 68.3612" fill="#55B6B1"/>
</svg>
